<?xml version="1.0" encoding="UTF-8" standalone="no"?>
<!-- Created with Inkscape (http://www.inkscape.org/) -->

<svg
   xmlns:dc="http://purl.org/dc/elements/1.1/"
   xmlns:cc="http://creativecommons.org/ns#"
   xmlns:rdf="http://www.w3.org/1999/02/22-rdf-syntax-ns#"
   xmlns:svg="http://www.w3.org/2000/svg"
   xmlns="http://www.w3.org/2000/svg"
   xmlns:sodipodi="http://sodipodi.sourceforge.net/DTD/sodipodi-0.dtd"
   xmlns:inkscape="http://www.inkscape.org/namespaces/inkscape"
   width="336"
   height="36"
   viewBox="0 0 88.900002 9.525"
   version="1.1"
   id="svg3878"
   inkscape:version="0.92.3 (2405546, 2018-03-11)"
   sodipodi:docname="BYOL.svg">
  <defs
     id="defs3872" />
  <sodipodi:namedview
     id="base"
     pagecolor="#ffffff"
     bordercolor="#666666"
     borderopacity="1.0"
     inkscape:pageopacity="0.0"
     inkscape:pageshadow="2"
     inkscape:zoom="1"
     inkscape:cx="400"
     inkscape:cy="80"
     inkscape:document-units="mm"
     inkscape:current-layer="layer1"
     showgrid="false"
     inkscape:window-width="1920"
     inkscape:window-height="1057"
     inkscape:window-x="-8"
     inkscape:window-y="-8"
     inkscape:window-maximized="1"
     units="px" />
  <metadata
     id="metadata3875">
    <rdf:RDF>
      <cc:Work
         rdf:about="">
        <dc:format>image/svg+xml</dc:format>
        <dc:type
           rdf:resource="http://purl.org/dc/dcmitype/StillImage" />
        <dc:title></dc:title>
      </cc:Work>
    </rdf:RDF>
  </metadata>
  <g
     inkscape:label="Layer 1"
     inkscape:groupmode="layer"
     id="layer1"
     transform="translate(0,-287.47501)">
    <g
       id="g3840"
       transform="matrix(0.10042021,0,0,0.10042021,0.0010042,287.52737)">
      <path
         style="fill:#ffffff"
         id="path3772"
         transform="translate(-36.18,-35.66)"
         d="m 163.74,125.91 a 4.09,4.09 0 0 1 -4.08,4.08 H 40.26 a 4.09,4.09 0 0 1 -4.09,-4.08 v -6.65 a 4.1,4.1 0 0 1 4.09,-4.1 h 119.4 a 4.09,4.09 0 0 1 4.08,4.1 z"
         class="cls-1"
         inkscape:connector-curvature="0" />
      <path
         style="fill:#ffffff"
         id="path3774"
         transform="translate(-36.18,-35.66)"
         d="m 163.74,103.57 a 4.09,4.09 0 0 1 -4.08,4.1 H 40.26 a 4.1,4.1 0 0 1 -4.09,-4.1 V 39.75 a 4.09,4.09 0 0 1 4.09,-4.08 h 119.4 a 4.08,4.08 0 0 1 4.08,4.08 z M 151,50.85 a 3.34,3.34 0 0 0 -3.35,-3.34 h -96 a 3.35,3.35 0 0 0 -3.35,3.34 v 41.08 a 3.35,3.35 0 0 0 3.35,3.35 h 96 A 3.35,3.35 0 0 0 151,91.93 Z"
         class="cls-1"
         inkscape:connector-curvature="0" />
      <path
         style="fill:#ffffff"
         id="path3776"
         transform="translate(-36.18,-35.66)"
         d="M 229.14,99.69 H 215.6 a 3.34,3.34 0 0 1 -3.33,-3.33 V 66 a 3.34,3.34 0 0 1 3.33,-3.33 h 13.16 c 6.44,0 10.38,3.89 10.38,9.44 a 8.41,8.41 0 0 1 -6.5,8.49 c 3.94,0.61 7.22,4.66 7.22,9.1 0,5.94 -3.94,9.99 -10.72,9.99 z M 228,66.77 H 216.9 V 78.71 H 228 c 4.16,0 6.38,-2.55 6.38,-5.94 0,-3.39 -2.24,-6 -6.38,-6 z m 0.22,16 h -11.34 v 12.81 h 11.32 c 4.33,0 6.88,-2.44 6.88,-6.38 0,-3.39 -2.33,-6.39 -6.88,-6.39 z"
         class="cls-2"
         inkscape:connector-curvature="0" />
      <path
         style="fill:#ffffff"
         id="path3778"
         transform="translate(-36.18,-35.66)"
         d="m 264.05,84.59 7.94,12 a 2.34,2.34 0 0 1 0.33,1.17 2.27,2.27 0 0 1 -2.32,2.24 2.15,2.15 0 0 1 -1.83,-1 l -9,-14 h -7.38 v 12.75 a 2.305,2.305 0 0 1 -4.61,0 V 66 a 3.34,3.34 0 0 1 3.33,-3.33 h 11.55 c 6.77,0 11.6,4.33 11.6,11.16 0,6.65 -4.55,10.31 -9.61,10.76 z M 251.79,66.77 v 14.16 h 9.71 c 4.38,0 7.38,-2.94 7.38,-7.11 0,-4.17 -3,-7.05 -7.38,-7.05 z"
         class="cls-2"
         inkscape:connector-curvature="0" />
      <path
         style="fill:#ffffff"
         id="path3780"
         transform="translate(-36.18,-35.66)"
         d="m 283.2,100 a 2.25,2.25 0 0 1 -2.28,-2.28 V 64.55 a 2.27,2.27 0 0 1 2.39,-2.22 2.23,2.23 0 0 1 2.22,2.22 v 33.2 A 2.26,2.26 0 0 1 283.2,100 Z"
         class="cls-2"
         inkscape:connector-curvature="0" />
      <path
         style="fill:#ffffff"
         id="path3782"
         transform="translate(-36.18,-35.66)"
         d="m 322.06,100 a 2.81,2.81 0 0 1 -2.28,-1.17 l -21,-28.7 v 27.62 a 2.305,2.305 0 0 1 -4.61,0 V 65.11 a 2.86,2.86 0 0 1 2.94,-2.78 3,3 0 0 1 2.44,1.22 l 20.65,28 v -27 a 2.27,2.27 0 0 1 2.39,-2.22 2.23,2.23 0 0 1 2.22,2.22 v 32.86 a 2.68,2.68 0 0 1 -2.75,2.59 z"
         class="cls-2"
         inkscape:connector-curvature="0" />
      <path
         style="fill:#ffffff"
         id="path3784"
         transform="translate(-36.18,-35.66)"
         d="m 351,100.41 c -10.55,0 -19,-7.72 -19,-19.21 0,-11.49 8.49,-19.15 19,-19.15 a 17.48,17.48 0 0 1 12.71,5.05 2.05,2.05 0 0 1 0.61,1.55 2.08,2.08 0 0 1 -3.61,1.5 13.58,13.58 0 0 0 -9.71,-4 c -8.1,0 -14.27,6.22 -14.27,15 0,8.78 6.19,15.15 14.27,15.15 a 14.61,14.61 0 0 0 9.94,-4 v -7.54 h -11 a 2,2 0 0 1 -2,-2.11 2,2 0 0 1 2,-2 h 12.32 a 3.34,3.34 0 0 1 3.31,3.35 v 7.33 c 0,5.67 -7.99,9.08 -14.57,9.08 z"
         class="cls-2"
         inkscape:connector-curvature="0" />
      <path
         style="fill:#ffffff"
         id="path3786"
         transform="translate(-36.18,-35.66)"
         d="M 415.19,65.72 402.76,84 v 13.75 a 2.305,2.305 0 0 1 -4.61,0 V 84 L 385.66,65.72 a 2.09,2.09 0 0 1 -0.39,-1.17 2.22,2.22 0 0 1 2.22,-2.22 2.42,2.42 0 0 1 1.89,0.94 l 11,16.6 11,-16.6 a 2.24,2.24 0 0 1 1.78,-0.89 2.27,2.27 0 0 1 2.28,2.16 2.19,2.19 0 0 1 -0.25,1.18 z"
         class="cls-2"
         inkscape:connector-curvature="0" />
      <path
         style="fill:#ffffff"
         id="path3788"
         transform="translate(-36.18,-35.66)"
         d="m 436.78,100.35 c -11,0 -18.37,-8.22 -18.37,-19.15 0,-10.93 7.38,-19.15 18.37,-19.15 10.99,0 18.37,8.22 18.37,19.15 0,10.93 -7.43,19.15 -18.37,19.15 z m 0,-34.19 c -8.33,0 -13.6,6.38 -13.6,15 0,8.62 5.27,15 13.6,15 8.33,0 13.6,-6.44 13.6,-15 0,-8.56 -5.33,-15 -13.6,-15 z"
         class="cls-2"
         inkscape:connector-curvature="0" />
      <path
         style="fill:#ffffff"
         id="path3790"
         transform="translate(-36.18,-35.66)"
         d="m 477.47,100.35 c -10,0 -15.1,-5.94 -15.1,-15 v -20.8 a 2.27,2.27 0 0 1 2.39,-2.22 2.23,2.23 0 0 1 2.24,2.22 V 85.2 c 0,6.77 3.66,11 10.49,11 6.83,0 10.51,-4.2 10.51,-11 V 64.55 a 2.27,2.27 0 0 1 2.39,-2.22 2.23,2.23 0 0 1 2.22,2.22 v 20.71 c -0.04,9.21 -5.09,15.09 -15.14,15.09 z"
         class="cls-2"
         inkscape:connector-curvature="0" />
      <path
         style="fill:#ffffff"
         id="path3792"
         transform="translate(-36.18,-35.66)"
         d="m 518.1,84.59 7.94,12 a 2.34,2.34 0 0 1 0.33,1.17 2.27,2.27 0 0 1 -2.28,2.22 2.15,2.15 0 0 1 -1.83,-1 l -9,-14 h -7.38 v 12.77 a 2.305,2.305 0 0 1 -4.61,0 V 66 a 3.34,3.34 0 0 1 3.33,-3.33 h 11.5 c 6.77,0 11.6,4.33 11.6,11.16 0,6.65 -4.55,10.31 -9.6,10.76 z M 505.83,66.77 v 14.16 h 9.71 c 4.38,0 7.38,-2.94 7.38,-7.11 0,-4.17 -3,-7.05 -7.38,-7.05 z"
         class="cls-2"
         inkscape:connector-curvature="0" />
      <path
         style="fill:#ffffff"
         id="path3794"
         transform="translate(-36.18,-35.66)"
         d="m 566.16,100.35 c -11,0 -18.37,-8.22 -18.37,-19.15 0,-10.93 7.38,-19.15 18.37,-19.15 10.99,0 18.38,8.22 18.38,19.15 0,10.93 -7.44,19.15 -18.38,19.15 z m 0,-34.19 c -8.33,0 -13.6,6.38 -13.6,15 0,8.62 5.27,15 13.6,15 8.33,0 13.6,-6.44 13.6,-15 0,-8.56 -5.33,-15 -13.6,-15 z"
         class="cls-2"
         inkscape:connector-curvature="0" />
      <path
         style="fill:#ffffff"
         id="path3796"
         transform="translate(-36.18,-35.66)"
         d="m 633.72,65.33 -9.22,32.42 a 3.23,3.23 0 0 1 -3.11,2.28 h -0.06 a 3,3 0 0 1 -2.94,-2.28 l -7.61,-27.92 -7.66,27.92 a 3.12,3.12 0 0 1 -3.05,2.28 H 600 a 3,3 0 0 1 -2.94,-2.22 l -9.21,-32.47 a 2.77,2.77 0 0 1 -0.11,-0.67 2.36,2.36 0 0 1 2.39,-2.33 2.5,2.5 0 0 1 2.44,1.83 l 7.83,29.37 8.1,-29.48 a 2.35,2.35 0 0 1 2.33,-1.72 2.38,2.38 0 0 1 2.28,1.72 l 8.1,29.48 7.79,-29.38 a 2.45,2.45 0 0 1 2.39,-1.78 2.33,2.33 0 0 1 2.44,2.28 2.82,2.82 0 0 1 -0.11,0.67 z"
         class="cls-2"
         inkscape:connector-curvature="0" />
      <path
         style="fill:#ffffff"
         id="path3798"
         transform="translate(-36.18,-35.66)"
         d="m 667.52,100 a 2.81,2.81 0 0 1 -2.28,-1.17 l -21,-28.7 v 27.62 a 2.305,2.305 0 0 1 -4.61,0 V 65.11 a 2.86,2.86 0 0 1 2.94,-2.78 3,3 0 0 1 2.43,1.22 l 20.65,28 v -27 a 2.27,2.27 0 0 1 2.39,-2.22 2.23,2.23 0 0 1 2.22,2.22 v 32.86 a 2.68,2.68 0 0 1 -2.74,2.59 z"
         class="cls-2"
         inkscape:connector-curvature="0" />
      <path
         style="fill:#ffffff"
         id="path3800"
         transform="translate(-36.18,-35.66)"
         d="M 713.42,99.69 H 696.6 a 3.34,3.34 0 0 1 -3.33,-3.33 V 64.55 a 2.27,2.27 0 0 1 2.39,-2.22 2.23,2.23 0 0 1 2.22,2.22 v 31 h 15.54 a 2,2 0 0 1 2,2 2,2 0 0 1 -2,2.14 z"
         class="cls-2"
         inkscape:connector-curvature="0" />
      <path
         style="fill:#ffffff"
         id="path3802"
         transform="translate(-36.18,-35.66)"
         d="m 749.72,100 a 2.39,2.39 0 0 1 -2.22,-1.5 l -2.78,-7.05 h -18.43 l -2.78,7.05 a 2.39,2.39 0 0 1 -2.22,1.5 2.48,2.48 0 0 1 -2.5,-2.44 2.51,2.51 0 0 1 0.17,-0.89 l 12.77,-31.86 a 4,4 0 0 1 3.78,-2.5 4,4 0 0 1 3.66,2.5 L 752,96.69 a 2.51,2.51 0 0 1 0.17,0.89 2.55,2.55 0 0 1 -2.45,2.42 z m -14.21,-32.56 -7.88,19.93 h 15.71 z"
         class="cls-2"
         inkscape:connector-curvature="0" />
      <path
         style="fill:#ffffff"
         id="path3804"
         transform="translate(-36.18,-35.66)"
         d="m 773,85 h -10.3 v 12.75 a 2.305,2.305 0 0 1 -4.61,0 V 66 a 3.34,3.34 0 0 1 3.33,-3.33 H 773 c 7.44,0 11.6,5.11 11.6,11.16 0,6.05 -4.3,11.17 -11.6,11.17 z m -0.55,-18.21 h -9.75 v 14.1 h 9.71 c 4.38,0 7.38,-2.89 7.38,-7 0,-4.11 -2.99,-7.12 -7.37,-7.12 z"
         class="cls-2"
         inkscape:connector-curvature="0" />
      <path
         style="fill:#ffffff"
         id="path3806"
         transform="translate(-36.18,-35.66)"
         d="m 814.55,66.77 h -10.1 v 31 a 2.305,2.305 0 0 1 -4.61,0 v -31 h -10 a 2,2 0 0 1 -2,-2.11 2,2 0 0 1 2,-2 h 24.76 a 2,2 0 0 1 2,2.11 2,2 0 0 1 -2.05,2 z"
         class="cls-2"
         inkscape:connector-curvature="0" />
      <path
         style="fill:#ffffff"
         id="path3808"
         transform="translate(-36.18,-35.66)"
         d="m 837.69,100.35 c -11,0 -18.37,-8.22 -18.37,-19.15 0,-10.93 7.38,-19.15 18.37,-19.15 10.99,0 18.38,8.22 18.38,19.15 0,10.93 -7.44,19.15 -18.38,19.15 z m 0,-34.19 c -8.33,0 -13.6,6.38 -13.6,15 0,8.62 5.27,15 13.6,15 8.33,0 13.6,-6.44 13.6,-15 0,-8.56 -5.29,-15 -13.6,-15 z"
         class="cls-2"
         inkscape:connector-curvature="0" />
      <path
         style="fill:#ffffff"
         id="path3810"
         transform="translate(-36.18,-35.66)"
         d="m 878.15,85 h -10.27 v 12.75 a 2.305,2.305 0 0 1 -4.61,0 V 66 a 3.34,3.34 0 0 1 3.33,-3.33 h 11.55 c 7.44,0 11.6,5.11 11.6,11.16 0,6.05 -4.27,11.17 -11.6,11.17 z M 877.6,66.79 h -9.71 v 14.1 h 9.71 c 4.38,0 7.38,-2.89 7.38,-7 0,-4.11 -2.98,-7.12 -7.38,-7.12 z"
         class="cls-2"
         inkscape:connector-curvature="0" />
      <path
         style="fill:#ffffff"
         id="path3812"
         transform="translate(-36.18,-35.66)"
         d="m 909.68,85.64 a 11.77,11.77 0 1 1 11.77,-11.77 11.77,11.77 0 0 1 -11.77,11.77 z m 0,-21.93 a 10.19,10.19 0 1 0 10.16,10.16 10.14,10.14 0 0 0 -10.16,-10.15 z m 1.83,11.55 2.83,4.22 a 0.74,0.74 0 0 1 0.17,0.44 1.07,1.07 0 0 1 -1,1 1,1 0 0 1 -0.72,-0.39 L 909.4,75.31 H 907 v 4.83 A 0.88,0.88 0 0 1 906,81 0.85,0.85 0 0 1 905.17,80.17 V 68.66 a 1.49,1.49 0 0 1 1.5,-1.5 h 4 a 4.1,4.1 0 0 1 4.33,4.11 4,4 0 0 1 -3.49,3.99 z m -0.83,-6.55 H 907 v 5 h 3.72 a 2.5,2.5 0 0 0 0,-5 z"
         class="cls-2"
         inkscape:connector-curvature="0" />
    </g>
  </g>
</svg>
