<svg xmlns="http://www.w3.org/2000/svg" viewBox="0 0 948 128">
  <defs>
    <style>
      .cls-1 {
        fill: #307379;
      }

      .cls-2, .cls-3 {
        stroke: none;
      }

      .cls-3 {
        fill: #262b2f;
      }
    </style>
  </defs>
  <g id="Path_57" data-name="Path 57" class="cls-1" transform="translate(-260 -1017.684)">
    <path class="cls-2" d="M 732 1145.182983398438 L 326.2886657714844 1125.197143554688 L 261.1109008789063 1018.542663574219 L 325.8549499511719 1038.162109375 L 325.9258728027344 1038.18359375 L 326 1038.18359375 L 1138 1038.18359375 L 1138.069946289063 1038.18359375 L 1138.137451171875 1038.164306640625 L 1206.855102539063 1018.530639648438 L 1137.7197265625 1125.19677734375 L 732 1145.182983398438 Z"/>
    <path class="cls-3" d="M 1205.710205078125 1019.377807617188 L 1138.274658203125 1038.645141601563 L 1138.140014648438 1038.68359375 L 1138 1038.68359375 L 326 1038.68359375 L 325.851806640625 1038.68359375 L 325.7099609375 1038.640625 L 262.2220458984375 1019.40185546875 L 326.577392578125 1124.710815429688 L 732 1144.682373046875 L 1137.439331054688 1124.7099609375 L 1205.710205078125 1019.377807617188 M 260 1017.68359375 L 326 1037.68359375 L 1138 1037.68359375 L 1208 1017.68359375 L 1138 1125.68359375 L 732 1145.68359375 L 326 1125.68359375 L 260 1017.68359375 Z"/>
  </g>
</svg>
